<svg width="145" height="75" viewBox="0 0 145 75" fill="none" xmlns="http://www.w3.org/2000/svg">
<path d="M6.846 8.83H2.59L1.806 11H0.462L3.99 1.298H5.46L8.974 11H7.63L6.846 8.83ZM6.482 7.794L4.718 2.866L2.954 7.794H6.482ZM14.2496 3.188C15.1829 3.188 15.9389 3.47267 16.5176 4.042C17.0963 4.602 17.3856 5.414 17.3856 6.478V11H16.1256V6.66C16.1256 5.89467 15.9343 5.31133 15.5516 4.91C15.1689 4.49933 14.6463 4.294 13.9836 4.294C13.3116 4.294 12.7749 4.504 12.3736 4.924C11.9816 5.344 11.7856 5.95533 11.7856 6.758V11H10.5116V3.328H11.7856V4.42C12.0376 4.028 12.3783 3.72467 12.8076 3.51C13.2463 3.29533 13.7269 3.188 14.2496 3.188ZM18.9907 7.136C18.9907 6.352 19.1493 5.666 19.4667 5.078C19.784 4.48067 20.218 4.01867 20.7687 3.692C21.3287 3.36533 21.9493 3.202 22.6307 3.202C23.3027 3.202 23.886 3.34667 24.3807 3.636C24.8753 3.92533 25.244 4.28933 25.4867 4.728V3.328H26.7747V11H25.4867V9.572C25.2347 10.02 24.8567 10.3933 24.3527 10.692C23.858 10.9813 23.2793 11.126 22.6167 11.126C21.9353 11.126 21.3193 10.958 20.7687 10.622C20.218 10.286 19.784 9.81467 19.4667 9.208C19.1493 8.60133 18.9907 7.91067 18.9907 7.136ZM25.4867 7.15C25.4867 6.57133 25.37 6.06733 25.1367 5.638C24.9033 5.20867 24.586 4.882 24.1847 4.658C23.7927 4.42467 23.3587 4.308 22.8827 4.308C22.4067 4.308 21.9727 4.42 21.5807 4.644C21.1887 4.868 20.876 5.19467 20.6427 5.624C20.4093 6.05333 20.2927 6.55733 20.2927 7.136C20.2927 7.724 20.4093 8.23733 20.6427 8.676C20.876 9.10533 21.1887 9.43667 21.5807 9.67C21.9727 9.894 22.4067 10.006 22.8827 10.006C23.3587 10.006 23.7927 9.894 24.1847 9.67C24.586 9.43667 24.9033 9.10533 25.1367 8.676C25.37 8.23733 25.4867 7.72867 25.4867 7.15ZM30.2016 0.64V11H28.9276V0.64H30.2016ZM33.0309 2.082C32.7883 2.082 32.5829 1.998 32.4149 1.83C32.2469 1.662 32.1629 1.45667 32.1629 1.214C32.1629 0.971333 32.2469 0.766 32.4149 0.598C32.5829 0.43 32.7883 0.345999 33.0309 0.345999C33.2643 0.345999 33.4603 0.43 33.6189 0.598C33.7869 0.766 33.8709 0.971333 33.8709 1.214C33.8709 1.45667 33.7869 1.662 33.6189 1.83C33.4603 1.998 33.2643 2.082 33.0309 2.082ZM33.6469 3.328V11H32.3729V3.328H33.6469ZM38.5342 11.126C37.9462 11.126 37.4189 11.028 36.9522 10.832C36.4856 10.6267 36.1169 10.3467 35.8462 9.992C35.5756 9.628 35.4262 9.21267 35.3982 8.746H36.7142C36.7516 9.12867 36.9289 9.44133 37.2462 9.684C37.5729 9.92667 37.9976 10.048 38.5202 10.048C39.0056 10.048 39.3882 9.94067 39.6682 9.726C39.9482 9.51133 40.0882 9.24067 40.0882 8.914C40.0882 8.578 39.9389 8.33067 39.6402 8.172C39.3416 8.004 38.8796 7.84067 38.2542 7.682C37.6849 7.53267 37.2182 7.38333 36.8542 7.234C36.4996 7.07533 36.1916 6.84667 35.9302 6.548C35.6782 6.24 35.5522 5.83867 35.5522 5.344C35.5522 4.952 35.6689 4.59267 35.9022 4.266C36.1356 3.93933 36.4669 3.68267 36.8962 3.496C37.3256 3.3 37.8156 3.202 38.3662 3.202C39.2156 3.202 39.9016 3.41667 40.4242 3.846C40.9469 4.27533 41.2269 4.86333 41.2642 5.61H39.9902C39.9622 5.20867 39.7989 4.88667 39.5002 4.644C39.2109 4.40133 38.8189 4.28 38.3242 4.28C37.8669 4.28 37.5029 4.378 37.2322 4.574C36.9616 4.77 36.8262 5.02667 36.8262 5.344C36.8262 5.596 36.9056 5.806 37.0642 5.974C37.2322 6.13267 37.4376 6.26333 37.6802 6.366C37.9322 6.45933 38.2776 6.56667 38.7162 6.688C39.2669 6.83733 39.7149 6.98667 40.0602 7.136C40.4056 7.276 40.6996 7.49067 40.9422 7.78C41.1942 8.06933 41.3249 8.44733 41.3342 8.914C41.3342 9.334 41.2176 9.712 40.9842 10.048C40.7509 10.384 40.4196 10.65 39.9902 10.846C39.5702 11.0327 39.0849 11.126 38.5342 11.126ZM44.6867 4.378V8.9C44.6867 9.27333 44.766 9.53933 44.9247 9.698C45.0834 9.84733 45.3587 9.922 45.7507 9.922H46.6887V11H45.5407C44.8314 11 44.2994 10.8367 43.9447 10.51C43.59 10.1833 43.4127 9.64667 43.4127 8.9V4.378H42.4187V3.328H43.4127V1.396H44.6867V3.328H46.6887V4.378H44.6867ZM47.7563 7.136C47.7563 6.352 47.915 5.666 48.2323 5.078C48.5496 4.48067 48.9836 4.01867 49.5343 3.692C50.0943 3.36533 50.715 3.202 51.3963 3.202C52.0683 3.202 52.6516 3.34667 53.1463 3.636C53.641 3.92533 54.0096 4.28933 54.2523 4.728V3.328H55.5403V11H54.2523V9.572C54.0003 10.02 53.6223 10.3933 53.1183 10.692C52.6236 10.9813 52.045 11.126 51.3823 11.126C50.701 11.126 50.085 10.958 49.5343 10.622C48.9836 10.286 48.5496 9.81467 48.2323 9.208C47.915 8.60133 47.7563 7.91067 47.7563 7.136ZM54.2523 7.15C54.2523 6.57133 54.1356 6.06733 53.9023 5.638C53.669 5.20867 53.3516 4.882 52.9503 4.658C52.5583 4.42467 52.1243 4.308 51.6483 4.308C51.1723 4.308 50.7383 4.42 50.3463 4.644C49.9543 4.868 49.6416 5.19467 49.4083 5.624C49.175 6.05333 49.0583 6.55733 49.0583 7.136C49.0583 7.724 49.175 8.23733 49.4083 8.676C49.6416 9.10533 49.9543 9.43667 50.3463 9.67C50.7383 9.894 51.1723 10.006 51.6483 10.006C52.1243 10.006 52.5583 9.894 52.9503 9.67C53.3516 9.43667 53.669 9.10533 53.9023 8.676C54.1356 8.23733 54.2523 7.72867 54.2523 7.15ZM60.9497 7.136C60.9497 6.352 61.1083 5.666 61.4257 5.078C61.743 4.48067 62.177 4.01867 62.7277 3.692C63.2877 3.36533 63.913 3.202 64.6037 3.202C65.201 3.202 65.7563 3.342 66.2697 3.622C66.783 3.89267 67.175 4.252 67.4457 4.7V0.64H68.7337V11H67.4457V9.558C67.1937 10.0153 66.8203 10.3933 66.3257 10.692C65.831 10.9813 65.2523 11.126 64.5897 11.126C63.9083 11.126 63.2877 10.958 62.7277 10.622C62.177 10.286 61.743 9.81467 61.4257 9.208C61.1083 8.60133 60.9497 7.91067 60.9497 7.136ZM67.4457 7.15C67.4457 6.57133 67.329 6.06733 67.0957 5.638C66.8623 5.20867 66.545 4.882 66.1437 4.658C65.7517 4.42467 65.3177 4.308 64.8417 4.308C64.3657 4.308 63.9317 4.42 63.5397 4.644C63.1477 4.868 62.835 5.19467 62.6017 5.624C62.3683 6.05333 62.2517 6.55733 62.2517 7.136C62.2517 7.724 62.3683 8.23733 62.6017 8.676C62.835 9.10533 63.1477 9.43667 63.5397 9.67C63.9317 9.894 64.3657 10.006 64.8417 10.006C65.3177 10.006 65.7517 9.894 66.1437 9.67C66.545 9.43667 66.8623 9.10533 67.0957 8.676C67.329 8.23733 67.4457 7.72867 67.4457 7.15ZM77.8866 6.87C77.8866 7.11267 77.8726 7.36933 77.8446 7.64H71.7126C71.7593 8.396 72.0159 8.98867 72.4826 9.418C72.9586 9.838 73.5326 10.048 74.2046 10.048C74.7553 10.048 75.2126 9.922 75.5766 9.67C75.9499 9.40867 76.2113 9.06333 76.3606 8.634H77.7326C77.5273 9.37133 77.1166 9.97333 76.5006 10.44C75.8846 10.8973 75.1193 11.126 74.2046 11.126C73.4766 11.126 72.8233 10.9627 72.2446 10.636C71.6753 10.3093 71.2273 9.84733 70.9006 9.25C70.5739 8.64333 70.4106 7.94333 70.4106 7.15C70.4106 6.35667 70.5693 5.66133 70.8866 5.064C71.2039 4.46667 71.6473 4.00933 72.2166 3.692C72.7953 3.36533 73.4579 3.202 74.2046 3.202C74.9326 3.202 75.5766 3.36067 76.1366 3.678C76.6966 3.99533 77.1259 4.434 77.4246 4.994C77.7326 5.54467 77.8866 6.17 77.8866 6.87ZM76.5706 6.604C76.5706 6.11867 76.4633 5.70333 76.2486 5.358C76.0339 5.00333 75.7399 4.73733 75.3666 4.56C75.0026 4.37333 74.5966 4.28 74.1486 4.28C73.5046 4.28 72.9539 4.48533 72.4966 4.896C72.0486 5.30667 71.7919 5.876 71.7266 6.604H76.5706ZM86.0167 11.126C85.4287 11.126 84.9013 11.028 84.4347 10.832C83.968 10.6267 83.5993 10.3467 83.3287 9.992C83.058 9.628 82.9087 9.21267 82.8807 8.746H84.1967C84.234 9.12867 84.4113 9.44133 84.7287 9.684C85.0553 9.92667 85.48 10.048 86.0027 10.048C86.488 10.048 86.8707 9.94067 87.1507 9.726C87.4307 9.51133 87.5707 9.24067 87.5707 8.914C87.5707 8.578 87.4213 8.33067 87.1227 8.172C86.824 8.004 86.362 7.84067 85.7367 7.682C85.1673 7.53267 84.7007 7.38333 84.3367 7.234C83.982 7.07533 83.674 6.84667 83.4127 6.548C83.1607 6.24 83.0347 5.83867 83.0347 5.344C83.0347 4.952 83.1513 4.59267 83.3847 4.266C83.618 3.93933 83.9493 3.68267 84.3787 3.496C84.808 3.3 85.298 3.202 85.8487 3.202C86.698 3.202 87.384 3.41667 87.9067 3.846C88.4293 4.27533 88.7093 4.86333 88.7467 5.61H87.4727C87.4447 5.20867 87.2813 4.88667 86.9827 4.644C86.6933 4.40133 86.3013 4.28 85.8067 4.28C85.3493 4.28 84.9853 4.378 84.7147 4.574C84.444 4.77 84.3087 5.02667 84.3087 5.344C84.3087 5.596 84.388 5.806 84.5467 5.974C84.7147 6.13267 84.92 6.26333 85.1627 6.366C85.4147 6.45933 85.76 6.56667 86.1987 6.688C86.7493 6.83733 87.1973 6.98667 87.5427 7.136C87.888 7.276 88.182 7.49067 88.4247 7.78C88.6767 8.06933 88.8073 8.44733 88.8167 8.914C88.8167 9.334 88.7 9.712 88.4667 10.048C88.2333 10.384 87.902 10.65 87.4727 10.846C87.0527 11.0327 86.5673 11.126 86.0167 11.126ZM91.2731 2.082C91.0304 2.082 90.8251 1.998 90.6571 1.83C90.4891 1.662 90.4051 1.45667 90.4051 1.214C90.4051 0.971333 90.4891 0.766 90.6571 0.598C90.8251 0.43 91.0304 0.345999 91.2731 0.345999C91.5064 0.345999 91.7024 0.43 91.8611 0.598C92.0291 0.766 92.1131 0.971333 92.1131 1.214C92.1131 1.45667 92.0291 1.662 91.8611 1.83C91.7024 1.998 91.5064 2.082 91.2731 2.082ZM91.8891 3.328V11H90.6151V3.328H91.8891ZM96.7764 11.126C96.1884 11.126 95.6611 11.028 95.1944 10.832C94.7278 10.6267 94.3591 10.3467 94.0884 9.992C93.8178 9.628 93.6684 9.21267 93.6404 8.746H94.9564C94.9938 9.12867 95.1711 9.44133 95.4884 9.684C95.8151 9.92667 96.2398 10.048 96.7624 10.048C97.2478 10.048 97.6304 9.94067 97.9104 9.726C98.1904 9.51133 98.3304 9.24067 98.3304 8.914C98.3304 8.578 98.1811 8.33067 97.8824 8.172C97.5838 8.004 97.1218 7.84067 96.4964 7.682C95.9271 7.53267 95.4604 7.38333 95.0964 7.234C94.7418 7.07533 94.4338 6.84667 94.1724 6.548C93.9204 6.24 93.7944 5.83867 93.7944 5.344C93.7944 4.952 93.9111 4.59267 94.1444 4.266C94.3778 3.93933 94.7091 3.68267 95.1384 3.496C95.5678 3.3 96.0578 3.202 96.6084 3.202C97.4578 3.202 98.1438 3.41667 98.6664 3.846C99.1891 4.27533 99.4691 4.86333 99.5064 5.61H98.2324C98.2044 5.20867 98.0411 4.88667 97.7424 4.644C97.4531 4.40133 97.0611 4.28 96.5664 4.28C96.1091 4.28 95.7451 4.378 95.4744 4.574C95.2038 4.77 95.0684 5.02667 95.0684 5.344C95.0684 5.596 95.1478 5.806 95.3064 5.974C95.4744 6.13267 95.6798 6.26333 95.9224 6.366C96.1744 6.45933 96.5198 6.56667 96.9584 6.688C97.5091 6.83733 97.9571 6.98667 98.3024 7.136C98.6478 7.276 98.9418 7.49067 99.1844 7.78C99.4364 8.06933 99.5671 8.44733 99.5764 8.914C99.5764 9.334 99.4598 9.712 99.2264 10.048C98.9931 10.384 98.6618 10.65 98.2324 10.846C97.8124 11.0327 97.3271 11.126 96.7764 11.126ZM102.929 4.378V8.9C102.929 9.27333 103.008 9.53933 103.167 9.698C103.326 9.84733 103.601 9.922 103.993 9.922H104.931V11H103.783C103.074 11 102.542 10.8367 102.187 10.51C101.832 10.1833 101.655 9.64667 101.655 8.9V4.378H100.661V3.328H101.655V1.396H102.929V3.328H104.931V4.378H102.929ZM113.474 6.87C113.474 7.11267 113.46 7.36933 113.432 7.64H107.3C107.347 8.396 107.604 8.98867 108.07 9.418C108.546 9.838 109.12 10.048 109.792 10.048C110.343 10.048 110.8 9.922 111.164 9.67C111.538 9.40867 111.799 9.06333 111.948 8.634H113.32C113.115 9.37133 112.704 9.97333 112.088 10.44C111.472 10.8973 110.707 11.126 109.792 11.126C109.064 11.126 108.411 10.9627 107.832 10.636C107.263 10.3093 106.815 9.84733 106.488 9.25C106.162 8.64333 105.998 7.94333 105.998 7.15C105.998 6.35667 106.157 5.66133 106.474 5.064C106.792 4.46667 107.235 4.00933 107.804 3.692C108.383 3.36533 109.046 3.202 109.792 3.202C110.52 3.202 111.164 3.36067 111.724 3.678C112.284 3.99533 112.714 4.434 113.012 4.994C113.32 5.54467 113.474 6.17 113.474 6.87ZM112.158 6.604C112.158 6.11867 112.051 5.70333 111.836 5.358C111.622 5.00333 111.328 4.73733 110.954 4.56C110.59 4.37333 110.184 4.28 109.736 4.28C109.092 4.28 108.542 4.48533 108.084 4.896C107.636 5.30667 107.38 5.876 107.314 6.604H112.158ZM124.382 3.188C124.979 3.188 125.511 3.314 125.978 3.566C126.445 3.80867 126.813 4.17733 127.084 4.672C127.355 5.16667 127.49 5.76867 127.49 6.478V11H126.23V6.66C126.23 5.89467 126.039 5.31133 125.656 4.91C125.283 4.49933 124.774 4.294 124.13 4.294C123.467 4.294 122.94 4.50867 122.548 4.938C122.156 5.358 121.96 5.96933 121.96 6.772V11H120.7V6.66C120.7 5.89467 120.509 5.31133 120.126 4.91C119.753 4.49933 119.244 4.294 118.6 4.294C117.937 4.294 117.41 4.50867 117.018 4.938C116.626 5.358 116.43 5.96933 116.43 6.772V11H115.156V3.328H116.43V4.434C116.682 4.03267 117.018 3.72467 117.438 3.51C117.867 3.29533 118.339 3.188 118.852 3.188C119.496 3.188 120.065 3.33267 120.56 3.622C121.055 3.91133 121.423 4.336 121.666 4.896C121.881 4.35467 122.235 3.93467 122.73 3.636C123.225 3.33733 123.775 3.188 124.382 3.188ZM129.104 7.136C129.104 6.352 129.263 5.666 129.58 5.078C129.897 4.48067 130.331 4.01867 130.882 3.692C131.442 3.36533 132.063 3.202 132.744 3.202C133.416 3.202 133.999 3.34667 134.494 3.636C134.989 3.92533 135.357 4.28933 135.6 4.728V3.328H136.888V11H135.6V9.572C135.348 10.02 134.97 10.3933 134.466 10.692C133.971 10.9813 133.393 11.126 132.73 11.126C132.049 11.126 131.433 10.958 130.882 10.622C130.331 10.286 129.897 9.81467 129.58 9.208C129.263 8.60133 129.104 7.91067 129.104 7.136ZM135.6 7.15C135.6 6.57133 135.483 6.06733 135.25 5.638C135.017 5.20867 134.699 4.882 134.298 4.658C133.906 4.42467 133.472 4.308 132.996 4.308C132.52 4.308 132.086 4.42 131.694 4.644C131.302 4.868 130.989 5.19467 130.756 5.624C130.523 6.05333 130.406 6.55733 130.406 7.136C130.406 7.724 130.523 8.23733 130.756 8.676C130.989 9.10533 131.302 9.43667 131.694 9.67C132.086 9.894 132.52 10.006 132.996 10.006C133.472 10.006 133.906 9.894 134.298 9.67C134.699 9.43667 135.017 9.10533 135.25 8.676C135.483 8.23733 135.6 7.72867 135.6 7.15ZM141.757 11.126C141.169 11.126 140.642 11.028 140.175 10.832C139.708 10.6267 139.34 10.3467 139.069 9.992C138.798 9.628 138.649 9.21267 138.621 8.746H139.937C139.974 9.12867 140.152 9.44133 140.469 9.684C140.796 9.92667 141.22 10.048 141.743 10.048C142.228 10.048 142.611 9.94067 142.891 9.726C143.171 9.51133 143.311 9.24067 143.311 8.914C143.311 8.578 143.162 8.33067 142.863 8.172C142.564 8.004 142.102 7.84067 141.477 7.682C140.908 7.53267 140.441 7.38333 140.077 7.234C139.722 7.07533 139.414 6.84667 139.153 6.548C138.901 6.24 138.775 5.83867 138.775 5.344C138.775 4.952 138.892 4.59267 139.125 4.266C139.358 3.93933 139.69 3.68267 140.119 3.496C140.548 3.3 141.038 3.202 141.589 3.202C142.438 3.202 143.124 3.41667 143.647 3.846C144.17 4.27533 144.45 4.86333 144.487 5.61H143.213C143.185 5.20867 143.022 4.88667 142.723 4.644C142.434 4.40133 142.042 4.28 141.547 4.28C141.09 4.28 140.726 4.378 140.455 4.574C140.184 4.77 140.049 5.02667 140.049 5.344C140.049 5.596 140.128 5.806 140.287 5.974C140.455 6.13267 140.66 6.26333 140.903 6.366C141.155 6.45933 141.5 6.56667 141.939 6.688C142.49 6.83733 142.938 6.98667 143.283 7.136C143.628 7.276 143.922 7.49067 144.165 7.78C144.417 8.06933 144.548 8.44733 144.557 8.914C144.557 9.334 144.44 9.712 144.207 10.048C143.974 10.384 143.642 10.65 143.213 10.846C142.793 11.0327 142.308 11.126 141.757 11.126ZM8.078 27.87C8.078 28.1127 8.064 28.3693 8.036 28.64H1.904C1.95067 29.396 2.20733 29.9887 2.674 30.418C3.15 30.838 3.724 31.048 4.396 31.048C4.94667 31.048 5.404 30.922 5.768 30.67C6.14133 30.4087 6.40267 30.0633 6.552 29.634H7.924C7.71867 30.3713 7.308 30.9733 6.692 31.44C6.076 31.8973 5.31067 32.126 4.396 32.126C3.668 32.126 3.01467 31.9627 2.436 31.636C1.86667 31.3093 1.41867 30.8473 1.092 30.25C0.765333 29.6433 0.602 28.9433 0.602 28.15C0.602 27.3567 0.760667 26.6613 1.078 26.064C1.39533 25.4667 1.83867 25.0093 2.408 24.692C2.98667 24.3653 3.64933 24.202 4.396 24.202C5.124 24.202 5.768 24.3607 6.328 24.678C6.888 24.9953 7.31733 25.434 7.616 25.994C7.924 26.5447 8.078 27.17 8.078 27.87ZM6.762 27.604C6.762 27.1187 6.65467 26.7033 6.44 26.358C6.22533 26.0033 5.93133 25.7373 5.558 25.56C5.194 25.3733 4.788 25.28 4.34 25.28C3.696 25.28 3.14533 25.4853 2.688 25.896C2.24 26.3067 1.98333 26.876 1.918 27.604H6.762ZM20.4921 27.87C20.4921 28.1127 20.4781 28.3693 20.4501 28.64H14.3181C14.3647 29.396 14.6214 29.9887 15.0881 30.418C15.5641 30.838 16.1381 31.048 16.8101 31.048C17.3607 31.048 17.8181 30.922 18.1821 30.67C18.5554 30.4087 18.8167 30.0633 18.9661 29.634H20.3381C20.1327 30.3713 19.7221 30.9733 19.1061 31.44C18.4901 31.8973 17.7247 32.126 16.8101 32.126C16.0821 32.126 15.4287 31.9627 14.8501 31.636C14.2807 31.3093 13.8327 30.8473 13.5061 30.25C13.1794 29.6433 13.0161 28.9433 13.0161 28.15C13.0161 27.3567 13.1747 26.6613 13.4921 26.064C13.8094 25.4667 14.2527 25.0093 14.8221 24.692C15.4007 24.3653 16.0634 24.202 16.8101 24.202C17.5381 24.202 18.1821 24.3607 18.7421 24.678C19.3021 24.9953 19.7314 25.434 20.0301 25.994C20.3381 26.5447 20.4921 27.17 20.4921 27.87ZM19.1761 27.604C19.1761 27.1187 19.0687 26.7033 18.8541 26.358C18.6394 26.0033 18.3454 25.7373 17.9721 25.56C17.6081 25.3733 17.2021 25.28 16.7541 25.28C16.1101 25.28 15.5594 25.4853 15.1021 25.896C14.6541 26.3067 14.3974 26.876 14.3321 27.604H19.1761ZM24.8897 32.126C24.3017 32.126 23.7744 32.028 23.3077 31.832C22.841 31.6267 22.4724 31.3467 22.2017 30.992C21.931 30.628 21.7817 30.2127 21.7537 29.746H23.0697C23.107 30.1287 23.2844 30.4413 23.6017 30.684C23.9284 30.9267 24.353 31.048 24.8757 31.048C25.361 31.048 25.7437 30.9407 26.0237 30.726C26.3037 30.5113 26.4437 30.2407 26.4437 29.914C26.4437 29.578 26.2944 29.3307 25.9957 29.172C25.697 29.004 25.235 28.8407 24.6097 28.682C24.0404 28.5327 23.5737 28.3833 23.2097 28.234C22.855 28.0753 22.547 27.8467 22.2857 27.548C22.0337 27.24 21.9077 26.8387 21.9077 26.344C21.9077 25.952 22.0244 25.5927 22.2577 25.266C22.491 24.9393 22.8224 24.6827 23.2517 24.496C23.681 24.3 24.171 24.202 24.7217 24.202C25.571 24.202 26.257 24.4167 26.7797 24.846C27.3024 25.2753 27.5824 25.8633 27.6197 26.61H26.3457C26.3177 26.2087 26.1544 25.8867 25.8557 25.644C25.5664 25.4013 25.1744 25.28 24.6797 25.28C24.2224 25.28 23.8584 25.378 23.5877 25.574C23.317 25.77 23.1817 26.0267 23.1817 26.344C23.1817 26.596 23.261 26.806 23.4197 26.974C23.5877 27.1327 23.793 27.2633 24.0357 27.366C24.2877 27.4593 24.633 27.5667 25.0717 27.688C25.6224 27.8373 26.0704 27.9867 26.4157 28.136C26.761 28.276 27.055 28.4907 27.2977 28.78C27.5497 29.0693 27.6804 29.4473 27.6897 29.914C27.6897 30.334 27.573 30.712 27.3397 31.048C27.1064 31.384 26.775 31.65 26.3457 31.846C25.9257 32.0327 25.4404 32.126 24.8897 32.126ZM29.0122 28.15C29.0122 27.3567 29.1708 26.666 29.4882 26.078C29.8055 25.4807 30.2442 25.0187 30.8042 24.692C31.3735 24.3653 32.0222 24.202 32.7502 24.202C33.6928 24.202 34.4675 24.4307 35.0742 24.888C35.6902 25.3453 36.0962 25.98 36.2922 26.792H34.9202C34.7895 26.3253 34.5328 25.9567 34.1502 25.686C33.7768 25.4153 33.3102 25.28 32.7502 25.28C32.0222 25.28 31.4342 25.532 30.9862 26.036C30.5382 26.5307 30.3142 27.2353 30.3142 28.15C30.3142 29.074 30.5382 29.788 30.9862 30.292C31.4342 30.796 32.0222 31.048 32.7502 31.048C33.3102 31.048 33.7768 30.9173 34.1502 30.656C34.5235 30.3947 34.7802 30.0213 34.9202 29.536H36.2922C36.0868 30.32 35.6762 30.95 35.0602 31.426C34.4442 31.8927 33.6742 32.126 32.7502 32.126C32.0222 32.126 31.3735 31.9627 30.8042 31.636C30.2442 31.3093 29.8055 30.8473 29.4882 30.25C29.1708 29.6527 29.0122 28.9527 29.0122 28.15ZM39.2661 25.574C39.4901 25.1353 39.8074 24.7947 40.2181 24.552C40.6381 24.3093 41.1467 24.188 41.7441 24.188V25.504H41.4081C39.9801 25.504 39.2661 26.2787 39.2661 27.828V32H37.9921V24.328H39.2661V25.574ZM43.8727 23.082C43.6301 23.082 43.4247 22.998 43.2567 22.83C43.0887 22.662 43.0047 22.4567 43.0047 22.214C43.0047 21.9713 43.0887 21.766 43.2567 21.598C43.4247 21.43 43.6301 21.346 43.8727 21.346C44.1061 21.346 44.3021 21.43 44.4607 21.598C44.6287 21.766 44.7127 21.9713 44.7127 22.214C44.7127 22.4567 44.6287 22.662 44.4607 22.83C44.3021 22.998 44.1061 23.082 43.8727 23.082ZM44.4887 24.328V32H43.2147V24.328H44.4887ZM48.214 25.378V29.9C48.214 30.2733 48.2934 30.5393 48.452 30.698C48.6107 30.8473 48.886 30.922 49.278 30.922H50.216V32H49.068C48.3587 32 47.8267 31.8367 47.472 31.51C47.1174 31.1833 46.94 30.6467 46.94 29.9V25.378H45.946V24.328H46.94V22.396H48.214V24.328H50.216V25.378H48.214ZM55.1056 32.126C54.387 32.126 53.7336 31.9627 53.1456 31.636C52.567 31.3093 52.1096 30.8473 51.7736 30.25C51.447 29.6433 51.2836 28.9433 51.2836 28.15C51.2836 27.366 51.4516 26.6753 51.7876 26.078C52.133 25.4713 52.5996 25.0093 53.1876 24.692C53.7756 24.3653 54.4336 24.202 55.1616 24.202C55.8896 24.202 56.5476 24.3653 57.1356 24.692C57.7236 25.0093 58.1856 25.4667 58.5216 26.064C58.867 26.6613 59.0396 27.3567 59.0396 28.15C59.0396 28.9433 58.8623 29.6433 58.5076 30.25C58.1623 30.8473 57.691 31.3093 57.0936 31.636C56.4963 31.9627 55.8336 32.126 55.1056 32.126ZM55.1056 31.006C55.563 31.006 55.9923 30.8987 56.3936 30.684C56.795 30.4693 57.117 30.1473 57.3596 29.718C57.6116 29.2887 57.7376 28.766 57.7376 28.15C57.7376 27.534 57.6163 27.0113 57.3736 26.582C57.131 26.1527 56.8136 25.8353 56.4216 25.63C56.0296 25.4153 55.605 25.308 55.1476 25.308C54.681 25.308 54.2516 25.4153 53.8596 25.63C53.477 25.8353 53.169 26.1527 52.9356 26.582C52.7023 27.0113 52.5856 27.534 52.5856 28.15C52.5856 28.7753 52.6976 29.3027 52.9216 29.732C53.155 30.1613 53.463 30.4833 53.8456 30.698C54.2283 30.9033 54.6483 31.006 55.1056 31.006ZM61.9887 25.574C62.2127 25.1353 62.5301 24.7947 62.9407 24.552C63.3607 24.3093 63.8694 24.188 64.4667 24.188V25.504H64.1307C62.7027 25.504 61.9887 26.2787 61.9887 27.828V32H60.7147V24.328H61.9887V25.574ZM65.4614 28.136C65.4614 27.352 65.62 26.666 65.9374 26.078C66.2547 25.4807 66.6887 25.0187 67.2394 24.692C67.7994 24.3653 68.42 24.202 69.1014 24.202C69.7734 24.202 70.3567 24.3467 70.8514 24.636C71.346 24.9253 71.7147 25.2893 71.9574 25.728V24.328H73.2454V32H71.9574V30.572C71.7054 31.02 71.3274 31.3933 70.8234 31.692C70.3287 31.9813 69.75 32.126 69.0874 32.126C68.406 32.126 67.79 31.958 67.2394 31.622C66.6887 31.286 66.2547 30.8147 65.9374 30.208C65.62 29.6013 65.4614 28.9107 65.4614 28.136ZM71.9574 28.15C71.9574 27.5713 71.8407 27.0673 71.6074 26.638C71.374 26.2087 71.0567 25.882 70.6554 25.658C70.2634 25.4247 69.8294 25.308 69.3534 25.308C68.8774 25.308 68.4434 25.42 68.0514 25.644C67.6594 25.868 67.3467 26.1947 67.1134 26.624C66.88 27.0533 66.7634 27.5573 66.7634 28.136C66.7634 28.724 66.88 29.2373 67.1134 29.676C67.3467 30.1053 67.6594 30.4367 68.0514 30.67C68.4434 30.894 68.8774 31.006 69.3534 31.006C69.8294 31.006 70.2634 30.894 70.6554 30.67C71.0567 30.4367 71.374 30.1053 71.6074 29.676C71.8407 29.2373 71.9574 28.7287 71.9574 28.15ZM76.7143 30.236L75.1463 34.002H74.2923L75.3143 30.236H76.7143ZM86.8201 22.242V29.452C86.8201 30.2547 86.5728 30.8987 86.0781 31.384C85.5835 31.86 84.9301 32.098 84.1181 32.098C83.2968 32.098 82.6388 31.8553 82.1441 31.37C81.6495 30.8753 81.4021 30.2033 81.4021 29.354H82.6761C82.6855 29.83 82.8068 30.2173 83.0401 30.516C83.2828 30.8147 83.6421 30.964 84.1181 30.964C84.5941 30.964 84.9488 30.824 85.1821 30.544C85.4155 30.2547 85.5321 29.8907 85.5321 29.452V22.242H86.8201ZM96.134 24.328V32H94.86V30.866C94.6173 31.258 94.2766 31.566 93.838 31.79C93.4086 32.0047 92.9326 32.112 92.41 32.112C91.8126 32.112 91.276 31.9907 90.8 31.748C90.324 31.496 89.946 31.1227 89.666 30.628C89.3953 30.1333 89.26 29.5313 89.26 28.822V24.328H90.52V28.654C90.52 29.41 90.7113 29.9933 91.094 30.404C91.4766 30.8053 91.9993 31.006 92.662 31.006C93.3433 31.006 93.88 30.796 94.272 30.376C94.664 29.956 94.86 29.3447 94.86 28.542V24.328H96.134ZM99.559 21.64V32H98.285V21.64H99.559ZM102.388 23.082C102.146 23.082 101.94 22.998 101.772 22.83C101.604 22.662 101.52 22.4567 101.52 22.214C101.52 21.9713 101.604 21.766 101.772 21.598C101.94 21.43 102.146 21.346 102.388 21.346C102.622 21.346 102.818 21.43 102.976 21.598C103.144 21.766 103.228 21.9713 103.228 22.214C103.228 22.4567 103.144 22.662 102.976 22.83C102.818 22.998 102.622 23.082 102.388 23.082ZM103.004 24.328V32H101.73V24.328H103.004ZM104.7 28.136C104.7 27.352 104.858 26.666 105.176 26.078C105.493 25.4807 105.927 25.0187 106.478 24.692C107.038 24.3653 107.658 24.202 108.34 24.202C109.012 24.202 109.595 24.3467 110.09 24.636C110.584 24.9253 110.953 25.2893 111.196 25.728V24.328H112.484V32H111.196V30.572C110.944 31.02 110.566 31.3933 110.062 31.692C109.567 31.9813 108.988 32.126 108.326 32.126C107.644 32.126 107.028 31.958 106.478 31.622C105.927 31.286 105.493 30.8147 105.176 30.208C104.858 29.6013 104.7 28.9107 104.7 28.136ZM111.196 28.15C111.196 27.5713 111.079 27.0673 110.846 26.638C110.612 26.2087 110.295 25.882 109.894 25.658C109.502 25.4247 109.068 25.308 108.592 25.308C108.116 25.308 107.682 25.42 107.29 25.644C106.898 25.868 106.585 26.1947 106.352 26.624C106.118 27.0533 106.002 27.5573 106.002 28.136C106.002 28.724 106.118 29.2373 106.352 29.676C106.585 30.1053 106.898 30.4367 107.29 30.67C107.682 30.894 108.116 31.006 108.592 31.006C109.068 31.006 109.502 30.894 109.894 30.67C110.295 30.4367 110.612 30.1053 110.846 29.676C111.079 29.2373 111.196 28.7287 111.196 28.15ZM118.375 24.188C119.308 24.188 120.064 24.4727 120.643 25.042C121.221 25.602 121.511 26.414 121.511 27.478V32H120.251V27.66C120.251 26.8947 120.059 26.3113 119.677 25.91C119.294 25.4993 118.771 25.294 118.109 25.294C117.437 25.294 116.9 25.504 116.499 25.924C116.107 26.344 115.911 26.9553 115.911 27.758V32H114.637V24.328H115.911V25.42C116.163 25.028 116.503 24.7247 116.933 24.51C117.371 24.2953 117.852 24.188 118.375 24.188ZM123.116 28.136C123.116 27.352 123.274 26.666 123.592 26.078C123.909 25.4807 124.343 25.0187 124.894 24.692C125.454 24.3653 126.074 24.202 126.756 24.202C127.428 24.202 128.011 24.3467 128.506 24.636C129 24.9253 129.369 25.2893 129.612 25.728V24.328H130.9V32H129.612V30.572C129.36 31.02 128.982 31.3933 128.478 31.692C127.983 31.9813 127.404 32.126 126.742 32.126C126.06 32.126 125.444 31.958 124.894 31.622C124.343 31.286 123.909 30.8147 123.592 30.208C123.274 29.6013 123.116 28.9107 123.116 28.136ZM129.612 28.15C129.612 27.5713 129.495 27.0673 129.262 26.638C129.028 26.2087 128.711 25.882 128.31 25.658C127.918 25.4247 127.484 25.308 127.008 25.308C126.532 25.308 126.098 25.42 125.706 25.644C125.314 25.868 125.001 26.1947 124.768 26.624C124.534 27.0533 124.418 27.5573 124.418 28.136C124.418 28.724 124.534 29.2373 124.768 29.676C125.001 30.1053 125.314 30.4367 125.706 30.67C126.098 30.894 126.532 31.006 127.008 31.006C127.484 31.006 127.918 30.894 128.31 30.67C128.711 30.4367 129.028 30.1053 129.262 29.676C129.495 29.2373 129.612 28.7287 129.612 28.15ZM143.785 27.87C143.785 28.1127 143.771 28.3693 143.743 28.64H137.611C137.658 29.396 137.914 29.9887 138.381 30.418C138.857 30.838 139.431 31.048 140.103 31.048C140.654 31.048 141.111 30.922 141.475 30.67C141.848 30.4087 142.11 30.0633 142.259 29.634H143.631C143.426 30.3713 143.015 30.9733 142.399 31.44C141.783 31.8973 141.018 32.126 140.103 32.126C139.375 32.126 138.722 31.9627 138.143 31.636C137.574 31.3093 137.126 30.8473 136.799 30.25C136.472 29.6433 136.309 28.9433 136.309 28.15C136.309 27.3567 136.468 26.6613 136.785 26.064C137.102 25.4667 137.546 25.0093 138.115 24.692C138.694 24.3653 139.356 24.202 140.103 24.202C140.831 24.202 141.475 24.3607 142.035 24.678C142.595 24.9953 143.024 25.434 143.323 25.994C143.631 26.5447 143.785 27.17 143.785 27.87ZM142.469 27.604C142.469 27.1187 142.362 26.7033 142.147 26.358C141.932 26.0033 141.638 25.7373 141.265 25.56C140.901 25.3733 140.495 25.28 140.047 25.28C139.403 25.28 138.852 25.4853 138.395 25.896C137.947 26.3067 137.69 26.876 137.625 27.604H142.469ZM141.419 22.158L138.437 23.754V22.802L141.419 21.052V22.158ZM8.078 48.87C8.078 49.1127 8.064 49.3693 8.036 49.64H1.904C1.95067 50.396 2.20733 50.9887 2.674 51.418C3.15 51.838 3.724 52.048 4.396 52.048C4.94667 52.048 5.404 51.922 5.768 51.67C6.14133 51.4087 6.40267 51.0633 6.552 50.634H7.924C7.71867 51.3713 7.308 51.9733 6.692 52.44C6.076 52.8973 5.31067 53.126 4.396 53.126C3.668 53.126 3.01467 52.9627 2.436 52.636C1.86667 52.3093 1.41867 51.8473 1.092 51.25C0.765333 50.6433 0.602 49.9433 0.602 49.15C0.602 48.3567 0.760667 47.6613 1.078 47.064C1.39533 46.4667 1.83867 46.0093 2.408 45.692C2.98667 45.3653 3.64933 45.202 4.396 45.202C5.124 45.202 5.768 45.3607 6.328 45.678C6.888 45.9953 7.31733 46.434 7.616 46.994C7.924 47.5447 8.078 48.17 8.078 48.87ZM6.762 48.604C6.762 48.1187 6.65467 47.7033 6.44 47.358C6.22533 47.0033 5.93133 46.7373 5.558 46.56C5.194 46.3733 4.788 46.28 4.34 46.28C3.696 46.28 3.14533 46.4853 2.688 46.896C2.24 47.3067 1.98333 47.876 1.918 48.604H6.762ZM12.4756 53.126C11.8876 53.126 11.3603 53.028 10.8936 52.832C10.427 52.6267 10.0583 52.3467 9.78764 51.992C9.51697 51.628 9.36764 51.2127 9.33964 50.746H10.6556C10.693 51.1287 10.8703 51.4413 11.1876 51.684C11.5143 51.9267 11.939 52.048 12.4616 52.048C12.947 52.048 13.3296 51.9407 13.6096 51.726C13.8896 51.5113 14.0296 51.2407 14.0296 50.914C14.0296 50.578 13.8803 50.3307 13.5816 50.172C13.283 50.004 12.821 49.8407 12.1956 49.682C11.6263 49.5327 11.1596 49.3833 10.7956 49.234C10.441 49.0753 10.133 48.8467 9.87164 48.548C9.61964 48.24 9.49364 47.8387 9.49364 47.344C9.49364 46.952 9.61031 46.5927 9.84364 46.266C10.077 45.9393 10.4083 45.6827 10.8376 45.496C11.267 45.3 11.757 45.202 12.3076 45.202C13.157 45.202 13.843 45.4167 14.3656 45.846C14.8883 46.2753 15.1683 46.8633 15.2056 47.61H13.9316C13.9036 47.2087 13.7403 46.8867 13.4416 46.644C13.1523 46.4013 12.7603 46.28 12.2656 46.28C11.8083 46.28 11.4443 46.378 11.1736 46.574C10.903 46.77 10.7676 47.0267 10.7676 47.344C10.7676 47.596 10.847 47.806 11.0056 47.974C11.1736 48.1327 11.379 48.2633 11.6216 48.366C11.8736 48.4593 12.219 48.5667 12.6576 48.688C13.2083 48.8373 13.6563 48.9867 14.0016 49.136C14.347 49.276 14.641 49.4907 14.8836 49.78C15.1356 50.0693 15.2663 50.4473 15.2756 50.914C15.2756 51.334 15.159 51.712 14.9256 52.048C14.6923 52.384 14.361 52.65 13.9316 52.846C13.5116 53.0327 13.0263 53.126 12.4756 53.126ZM18.3481 46.742C18.6001 46.3033 18.9734 45.9393 19.4681 45.65C19.9721 45.3513 20.5554 45.202 21.2181 45.202C21.8994 45.202 22.5154 45.3653 23.0661 45.692C23.6261 46.0187 24.0648 46.4807 24.3821 47.078C24.6994 47.666 24.8581 48.352 24.8581 49.136C24.8581 49.9107 24.6994 50.6013 24.3821 51.208C24.0648 51.8147 23.6261 52.286 23.0661 52.622C22.5154 52.958 21.8994 53.126 21.2181 53.126C20.5648 53.126 19.9861 52.9813 19.4821 52.692C18.9874 52.3933 18.6094 52.0247 18.3481 51.586V56.64H17.0741V45.328H18.3481V46.742ZM23.5561 49.136C23.5561 48.5573 23.4394 48.0533 23.2061 47.624C22.9728 47.1947 22.6554 46.868 22.2541 46.644C21.8621 46.42 21.4281 46.308 20.9521 46.308C20.4854 46.308 20.0514 46.4247 19.6501 46.658C19.2581 46.882 18.9408 47.2133 18.6981 47.652C18.4648 48.0813 18.3481 48.5807 18.3481 49.15C18.3481 49.7287 18.4648 50.2373 18.6981 50.676C18.9408 51.1053 19.2581 51.4367 19.6501 51.67C20.0514 51.894 20.4854 52.006 20.9521 52.006C21.4281 52.006 21.8621 51.894 22.2541 51.67C22.6554 51.4367 22.9728 51.1053 23.2061 50.676C23.4394 50.2373 23.5561 49.724 23.5561 49.136ZM33.535 48.87C33.535 49.1127 33.521 49.3693 33.493 49.64H27.361C27.4077 50.396 27.6644 50.9887 28.131 51.418C28.607 51.838 29.181 52.048 29.853 52.048C30.4037 52.048 30.861 51.922 31.225 51.67C31.5984 51.4087 31.8597 51.0633 32.009 50.634H33.381C33.1757 51.3713 32.765 51.9733 32.149 52.44C31.533 52.8973 30.7677 53.126 29.853 53.126C29.125 53.126 28.4717 52.9627 27.893 52.636C27.3237 52.3093 26.8757 51.8473 26.549 51.25C26.2224 50.6433 26.059 49.9433 26.059 49.15C26.059 48.3567 26.2177 47.6613 26.535 47.064C26.8524 46.4667 27.2957 46.0093 27.865 45.692C28.4437 45.3653 29.1064 45.202 29.853 45.202C30.581 45.202 31.225 45.3607 31.785 45.678C32.345 45.9953 32.7744 46.434 33.073 46.994C33.381 47.5447 33.535 48.17 33.535 48.87ZM32.219 48.604C32.219 48.1187 32.1117 47.7033 31.897 47.358C31.6824 47.0033 31.3884 46.7373 31.015 46.56C30.651 46.3733 30.245 46.28 29.797 46.28C29.153 46.28 28.6024 46.4853 28.145 46.896C27.697 47.3067 27.4404 47.876 27.375 48.604H32.219ZM34.7407 49.15C34.7407 48.3567 34.8993 47.666 35.2167 47.078C35.534 46.4807 35.9727 46.0187 36.5327 45.692C37.102 45.3653 37.7507 45.202 38.4787 45.202C39.4213 45.202 40.196 45.4307 40.8027 45.888C41.4187 46.3453 41.8247 46.98 42.0207 47.792H40.6487C40.518 47.3253 40.2613 46.9567 39.8787 46.686C39.5053 46.4153 39.0387 46.28 38.4787 46.28C37.7507 46.28 37.1627 46.532 36.7147 47.036C36.2667 47.5307 36.0427 48.2353 36.0427 49.15C36.0427 50.074 36.2667 50.788 36.7147 51.292C37.1627 51.796 37.7507 52.048 38.4787 52.048C39.0387 52.048 39.5053 51.9173 39.8787 51.656C40.252 51.3947 40.5087 51.0213 40.6487 50.536H42.0207C41.8153 51.32 41.4047 51.95 40.7887 52.426C40.1727 52.8927 39.4027 53.126 38.4787 53.126C37.7507 53.126 37.102 52.9627 36.5327 52.636C35.9727 52.3093 35.534 51.8473 35.2167 51.25C34.8993 50.6527 34.7407 49.9527 34.7407 49.15ZM44.3786 44.082C44.1359 44.082 43.9306 43.998 43.7626 43.83C43.5946 43.662 43.5106 43.4567 43.5106 43.214C43.5106 42.9713 43.5946 42.766 43.7626 42.598C43.9306 42.43 44.1359 42.346 44.3786 42.346C44.6119 42.346 44.8079 42.43 44.9666 42.598C45.1346 42.766 45.2186 42.9713 45.2186 43.214C45.2186 43.4567 45.1346 43.662 44.9666 43.83C44.8079 43.998 44.6119 44.082 44.3786 44.082ZM44.9946 45.328V53H43.7206V45.328H44.9946ZM46.6899 49.136C46.6899 48.352 46.8486 47.666 47.1659 47.078C47.4832 46.4807 47.9172 46.0187 48.4679 45.692C49.0279 45.3653 49.6486 45.202 50.3299 45.202C51.0019 45.202 51.5852 45.3467 52.0799 45.636C52.5746 45.9253 52.9432 46.2893 53.1859 46.728V45.328H54.4739V53H53.1859V51.572C52.9339 52.02 52.5559 52.3933 52.0519 52.692C51.5572 52.9813 50.9786 53.126 50.3159 53.126C49.6346 53.126 49.0186 52.958 48.4679 52.622C47.9172 52.286 47.4832 51.8147 47.1659 51.208C46.8486 50.6013 46.6899 49.9107 46.6899 49.136ZM53.1859 49.15C53.1859 48.5713 53.0692 48.0673 52.8359 47.638C52.6026 47.2087 52.2852 46.882 51.8839 46.658C51.4919 46.4247 51.0579 46.308 50.5819 46.308C50.1059 46.308 49.6719 46.42 49.2799 46.644C48.8879 46.868 48.5752 47.1947 48.3419 47.624C48.1086 48.0533 47.9919 48.5573 47.9919 49.136C47.9919 49.724 48.1086 50.2373 48.3419 50.676C48.5752 51.1053 48.8879 51.4367 49.2799 51.67C49.6719 51.894 50.1059 52.006 50.5819 52.006C51.0579 52.006 51.4919 51.894 51.8839 51.67C52.2852 51.4367 52.6026 51.1053 52.8359 50.676C53.0692 50.2373 53.1859 49.7287 53.1859 49.15ZM57.9008 42.64V53H56.6268V42.64H57.9008ZM60.7301 44.082C60.4875 44.082 60.2821 43.998 60.1141 43.83C59.9461 43.662 59.8621 43.4567 59.8621 43.214C59.8621 42.9713 59.9461 42.766 60.1141 42.598C60.2821 42.43 60.4875 42.346 60.7301 42.346C60.9635 42.346 61.1595 42.43 61.3181 42.598C61.4861 42.766 61.5701 42.9713 61.5701 43.214C61.5701 43.4567 61.4861 43.662 61.3181 43.83C61.1595 43.998 60.9635 44.082 60.7301 44.082ZM61.3461 45.328V53H60.0721V45.328H61.3461ZM66.2335 53.126C65.6455 53.126 65.1181 53.028 64.6515 52.832C64.1848 52.6267 63.8161 52.3467 63.5455 51.992C63.2748 51.628 63.1255 51.2127 63.0975 50.746H64.4135C64.4508 51.1287 64.6281 51.4413 64.9455 51.684C65.2721 51.9267 65.6968 52.048 66.2195 52.048C66.7048 52.048 67.0875 51.9407 67.3675 51.726C67.6475 51.5113 67.7875 51.2407 67.7875 50.914C67.7875 50.578 67.6381 50.3307 67.3395 50.172C67.0408 50.004 66.5788 49.8407 65.9535 49.682C65.3841 49.5327 64.9175 49.3833 64.5535 49.234C64.1988 49.0753 63.8908 48.8467 63.6295 48.548C63.3775 48.24 63.2515 47.8387 63.2515 47.344C63.2515 46.952 63.3681 46.5927 63.6015 46.266C63.8348 45.9393 64.1661 45.6827 64.5955 45.496C65.0248 45.3 65.5148 45.202 66.0655 45.202C66.9148 45.202 67.6008 45.4167 68.1235 45.846C68.6461 46.2753 68.9261 46.8633 68.9635 47.61H67.6895C67.6615 47.2087 67.4981 46.8867 67.1995 46.644C66.9101 46.4013 66.5181 46.28 66.0235 46.28C65.5661 46.28 65.2021 46.378 64.9315 46.574C64.6608 46.77 64.5255 47.0267 64.5255 47.344C64.5255 47.596 64.6048 47.806 64.7635 47.974C64.9315 48.1327 65.1368 48.2633 65.3795 48.366C65.6315 48.4593 65.9768 48.5667 66.4155 48.688C66.9661 48.8373 67.4141 48.9867 67.7595 49.136C68.1048 49.276 68.3988 49.4907 68.6415 49.78C68.8935 50.0693 69.0241 50.4473 69.0335 50.914C69.0335 51.334 68.9168 51.712 68.6835 52.048C68.4501 52.384 68.1188 52.65 67.6895 52.846C67.2695 53.0327 66.7841 53.126 66.2335 53.126ZM72.3859 46.378V50.9C72.3859 51.2733 72.4652 51.5393 72.6239 51.698C72.7826 51.8473 73.0579 51.922 73.4499 51.922H74.3879V53H73.2399C72.5306 53 71.9986 52.8367 71.6439 52.51C71.2892 52.1833 71.1119 51.6467 71.1119 50.9V46.378H70.1179V45.328H71.1119V43.396H72.3859V45.328H74.3879V46.378H72.3859ZM75.4555 49.136C75.4555 48.352 75.6142 47.666 75.9315 47.078C76.2488 46.4807 76.6828 46.0187 77.2335 45.692C77.7935 45.3653 78.4142 45.202 79.0955 45.202C79.7675 45.202 80.3508 45.3467 80.8455 45.636C81.3402 45.9253 81.7088 46.2893 81.9515 46.728V45.328H83.2395V53H81.9515V51.572C81.6995 52.02 81.3215 52.3933 80.8175 52.692C80.3228 52.9813 79.7442 53.126 79.0815 53.126C78.4002 53.126 77.7842 52.958 77.2335 52.622C76.6828 52.286 76.2488 51.8147 75.9315 51.208C75.6142 50.6013 75.4555 49.9107 75.4555 49.136ZM81.9515 49.15C81.9515 48.5713 81.8348 48.0673 81.6015 47.638C81.3682 47.2087 81.0508 46.882 80.6495 46.658C80.2575 46.4247 79.8235 46.308 79.3475 46.308C78.8715 46.308 78.4375 46.42 78.0455 46.644C77.6535 46.868 77.3408 47.1947 77.1075 47.624C76.8742 48.0533 76.7575 48.5573 76.7575 49.136C76.7575 49.724 76.8742 50.2373 77.1075 50.676C77.3408 51.1053 77.6535 51.4367 78.0455 51.67C78.4375 51.894 78.8715 52.006 79.3475 52.006C79.8235 52.006 80.2575 51.894 80.6495 51.67C81.0508 51.4367 81.3682 51.1053 81.6015 50.676C81.8348 50.2373 81.9515 49.7287 81.9515 49.15ZM96.1249 48.87C96.1249 49.1127 96.1109 49.3693 96.0829 49.64H89.9509C89.9975 50.396 90.2542 50.9887 90.7209 51.418C91.1969 51.838 91.7709 52.048 92.4429 52.048C92.9935 52.048 93.4509 51.922 93.8149 51.67C94.1882 51.4087 94.4495 51.0633 94.5989 50.634H95.9709C95.7655 51.3713 95.3549 51.9733 94.7389 52.44C94.1229 52.8973 93.3575 53.126 92.4429 53.126C91.7149 53.126 91.0615 52.9627 90.4829 52.636C89.9135 52.3093 89.4655 51.8473 89.1389 51.25C88.8122 50.6433 88.6489 49.9433 88.6489 49.15C88.6489 48.3567 88.8075 47.6613 89.1249 47.064C89.4422 46.4667 89.8855 46.0093 90.4549 45.692C91.0335 45.3653 91.6962 45.202 92.4429 45.202C93.1709 45.202 93.8149 45.3607 94.3749 45.678C94.9349 45.9953 95.3642 46.434 95.6629 46.994C95.9709 47.5447 96.1249 48.17 96.1249 48.87ZM94.8089 48.604C94.8089 48.1187 94.7015 47.7033 94.4869 47.358C94.2722 47.0033 93.9782 46.7373 93.6049 46.56C93.2409 46.3733 92.8349 46.28 92.3869 46.28C91.7429 46.28 91.1922 46.4853 90.7349 46.896C90.2869 47.3067 90.0302 47.876 89.9649 48.604H94.8089ZM107.033 45.188C107.63 45.188 108.162 45.314 108.629 45.566C109.095 45.8087 109.464 46.1773 109.735 46.672C110.005 47.1667 110.141 47.7687 110.141 48.478V53H108.881V48.66C108.881 47.8947 108.689 47.3113 108.307 46.91C107.933 46.4993 107.425 46.294 106.781 46.294C106.118 46.294 105.591 46.5087 105.199 46.938C104.807 47.358 104.611 47.9693 104.611 48.772V53H103.351V48.66C103.351 47.8947 103.159 47.3113 102.777 46.91C102.403 46.4993 101.895 46.294 101.251 46.294C100.588 46.294 100.061 46.5087 99.6685 46.938C99.2765 47.358 99.0805 47.9693 99.0805 48.772V53H97.8065V45.328H99.0805V46.434C99.3325 46.0327 99.6685 45.7247 100.089 45.51C100.518 45.2953 100.989 45.188 101.503 45.188C102.147 45.188 102.716 45.3327 103.211 45.622C103.705 45.9113 104.074 46.336 104.317 46.896C104.531 46.3547 104.886 45.9347 105.381 45.636C105.875 45.3373 106.426 45.188 107.033 45.188ZM6.594 64.242V65.278H2.352V68.568H5.796V69.604H2.352V74H1.078V64.242H6.594ZM9.40669 67.574C9.63069 67.1353 9.94802 66.7947 10.3587 66.552C10.7787 66.3093 11.2874 66.188 11.8847 66.188V67.504H11.5487C10.1207 67.504 9.40669 68.2787 9.40669 69.828V74H8.13269V66.328H9.40669V67.574ZM16.7013 74.126C15.9827 74.126 15.3293 73.9627 14.7413 73.636C14.1627 73.3093 13.7053 72.8473 13.3693 72.25C13.0427 71.6433 12.8793 70.9433 12.8793 70.15C12.8793 69.366 13.0473 68.6753 13.3833 68.078C13.7287 67.4713 14.1953 67.0093 14.7833 66.692C15.3713 66.3653 16.0293 66.202 16.7573 66.202C17.4853 66.202 18.1433 66.3653 18.7313 66.692C19.3193 67.0093 19.7813 67.4667 20.1173 68.064C20.4627 68.6613 20.6353 69.3567 20.6353 70.15C20.6353 70.9433 20.458 71.6433 20.1033 72.25C19.758 72.8473 19.2867 73.3093 18.6893 73.636C18.092 73.9627 17.4293 74.126 16.7013 74.126ZM16.7013 73.006C17.1587 73.006 17.588 72.8987 17.9893 72.684C18.3907 72.4693 18.7127 72.1473 18.9553 71.718C19.2073 71.2887 19.3333 70.766 19.3333 70.15C19.3333 69.534 19.212 69.0113 18.9693 68.582C18.7267 68.1527 18.4093 67.8353 18.0173 67.63C17.6253 67.4153 17.2007 67.308 16.7433 67.308C16.2767 67.308 15.8473 67.4153 15.4553 67.63C15.0727 67.8353 14.7647 68.1527 14.5313 68.582C14.298 69.0113 14.1813 69.534 14.1813 70.15C14.1813 70.7753 14.2933 71.3027 14.5173 71.732C14.7507 72.1613 15.0587 72.4833 15.4413 72.698C15.824 72.9033 16.244 73.006 16.7013 73.006ZM26.0484 66.188C26.9818 66.188 27.7378 66.4727 28.3164 67.042C28.8951 67.602 29.1844 68.414 29.1844 69.478V74H27.9244V69.66C27.9244 68.8947 27.7331 68.3113 27.3504 67.91C26.9678 67.4993 26.4451 67.294 25.7824 67.294C25.1104 67.294 24.5738 67.504 24.1724 67.924C23.7804 68.344 23.5844 68.9553 23.5844 69.758V74H22.3104V66.328H23.5844V67.42C23.8364 67.028 24.1771 66.7247 24.6064 66.51C25.0451 66.2953 25.5258 66.188 26.0484 66.188ZM32.8195 67.378V71.9C32.8195 72.2733 32.8988 72.5393 33.0575 72.698C33.2162 72.8473 33.4915 72.922 33.8835 72.922H34.8215V74H33.6735C32.9642 74 32.4322 73.8367 32.0775 73.51C31.7228 73.1833 31.5455 72.6467 31.5455 71.9V67.378H30.5515V66.328H31.5455V64.396H32.8195V66.328H34.8215V67.378H32.8195ZM41.6851 68.33V69.408H36.0991V68.33H41.6851ZM45.35 65.278V68.54H48.906V69.59H45.35V72.95H49.326V74H44.076V64.228H49.326V65.278H45.35ZM54.9918 66.188C55.9251 66.188 56.6811 66.4727 57.2598 67.042C57.8384 67.602 58.1278 68.414 58.1278 69.478V74H56.8678V69.66C56.8678 68.8947 56.6764 68.3113 56.2938 67.91C55.9111 67.4993 55.3884 67.294 54.7258 67.294C54.0538 67.294 53.5171 67.504 53.1158 67.924C52.7238 68.344 52.5278 68.9553 52.5278 69.758V74H51.2538V66.328H52.5278V67.42C52.7798 67.028 53.1204 66.7247 53.5498 66.51C53.9884 66.2953 54.4691 66.188 54.9918 66.188ZM59.7329 70.136C59.7329 69.352 59.8915 68.666 60.2089 68.078C60.5262 67.4807 60.9602 67.0187 61.5109 66.692C62.0709 66.3653 62.6962 66.202 63.3869 66.202C63.9842 66.202 64.5395 66.342 65.0529 66.622C65.5662 66.8927 65.9582 67.252 66.2289 67.7V63.64H67.5169V74H66.2289V72.558C65.9769 73.0153 65.6035 73.3933 65.1089 73.692C64.6142 73.9813 64.0355 74.126 63.3729 74.126C62.6915 74.126 62.0709 73.958 61.5109 73.622C60.9602 73.286 60.5262 72.8147 60.2089 72.208C59.8915 71.6013 59.7329 70.9107 59.7329 70.136ZM66.2289 70.15C66.2289 69.5713 66.1122 69.0673 65.8789 68.638C65.6455 68.2087 65.3282 67.882 64.9269 67.658C64.5349 67.4247 64.1009 67.308 63.6249 67.308C63.1489 67.308 62.7149 67.42 62.3229 67.644C61.9309 67.868 61.6182 68.1947 61.3849 68.624C61.1515 69.0533 61.0349 69.5573 61.0349 70.136C61.0349 70.724 61.1515 71.2373 61.3849 71.676C61.6182 72.1053 61.9309 72.4367 62.3229 72.67C62.7149 72.894 63.1489 73.006 63.6249 73.006C64.1009 73.006 64.5349 72.894 64.9269 72.67C65.3282 72.4367 65.6455 72.1053 65.8789 71.676C66.1122 71.2373 66.2289 70.7287 66.2289 70.15ZM70.0758 74.084C69.8331 74.084 69.6278 74 69.4598 73.832C69.2918 73.664 69.2078 73.4587 69.2078 73.216C69.2078 72.9733 69.2918 72.768 69.4598 72.6C69.6278 72.432 69.8331 72.348 70.0758 72.348C70.3091 72.348 70.5051 72.432 70.6638 72.6C70.8318 72.768 70.9158 72.9733 70.9158 73.216C70.9158 73.4587 70.8318 73.664 70.6638 73.832C70.5051 74 70.3091 74.084 70.0758 74.084Z" fill="black" fill-opacity="0.85"/>
</svg>
