<svg width="54" height="47" viewBox="0 0 54 47" fill="none" xmlns="http://www.w3.org/2000/svg">
<rect x="17" y="13" width="19" height="25" fill="white"/>
<path d="M24.502 11.1405C33.3302 1.69391 39.5039 -0.3519 42.002 2.14046C44.5 4.63281 42.6861 12.4134 39.002 21.6405M29.502 11.1405C19.7315 2.05408 14.4998 -0.86715 11.502 2.14046C8.50412 5.14806 11.2538 12.4799 15.502 22.6396M16 14.6328C4.21894 17.5744 1 19.1328 1 23.6328C1 28.1328 5.29687 29.368 15.502 31.6328M38.5 15.1328C48.1338 17.1604 53 19.6328 53 23.6328C53 27.6328 47.7379 29.2678 38.5 31.6328M38.5 25.1328C43.1775 32.1963 45 43.1328 42.002 44.6328C39.0039 46.1328 35.8593 45.1271 29.502 40.6328M15.502 25.1328C11.0178 33.0892 9 42.6328 11.502 44.6328C14.0039 46.6328 23 41.5 23.5 41" stroke="#006CA6" stroke-width="1.5"/>
<path d="M37.5 11H16V39.5H37.5V11Z" stroke="#FFA41A" stroke-width="4"/>
<rect x="15.7598" y="22.3535" width="20.8632" height="8.19802" rx="3" transform="rotate(14.4791 15.7598 22.3535)" fill="white"/>
<path d="M27.85 17L35 19.1622V27.2703L29.5 29.973L14.1 25.1081V29.973L14.65 30.1467L29.5 34.8378L35 32.5V34.2973L29.5 37L13 31.0541V24.027L27.85 17Z" fill="#04679C"/>
<path d="M29.5 34.8378L14.1 29.973V25.1081L29.5 29.973L35 27.2703V19.1622L27.85 17L13 24.027V31.0541L29.5 37L35 34.2973V32.5M29.5 34.8378L35 32.5M29.5 34.8378L14.65 30.5135V26.1892L29.5 30.5135L34.5 28M35 32.5V27.5" stroke="#006CA6"/>
<circle cx="33.4432" cy="3.44318" r="2.44318" fill="#D17E00"/>
<circle cx="43.4432" cy="38.4432" r="2.44318" fill="#D17E00"/>
<circle cx="5.44318" cy="28.4432" r="2.44318" fill="#D17E00"/>
</svg>
